<svg height="50" viewBox="0 0 50 50" width="50" xmlns="http://www.w3.org/2000/svg"><path d="m50.0625 10.4375c-1.847656.820313-3.828125 1.371094-5.910156 1.621094 2.125-1.273438 3.757812-3.289063 4.523437-5.6875-1.984375 1.175781-4.191406 2.03125-6.53125 2.492187-1.875-2-4.546875-3.246093-7.503906-3.246093-5.679687 0-10.285156 4.601562-10.285156 10.28125 0 .804687.09375 1.589843.269531 2.34375-8.546875-.429688-16.121094-4.523438-21.195312-10.746094-.886719 1.523437-1.390625 3.289062-1.390625 5.171875 0 3.566406 1.8125 6.714844 4.574218 8.5625-1.6875-.054688-3.273437-.519531-4.660156-1.289063v.128907c0 4.984375 3.546875 9.136718 8.246094 10.085937-.859375.234375-1.769531.359375-2.707031.359375-.664063 0-1.308594-.0625-1.9375-.1875 1.3125 4.082031 5.109375 7.0625 9.605468 7.144531-3.515625 2.757813-7.949218 4.398438-12.769531 4.398438-.832031 0-1.648437-.046875-2.4492188-.144531 4.5468748 2.921875 9.9531248 4.621093 15.7617188 4.621093 18.914063 0 29.257813-15.667968 29.257813-29.253906 0-.445312-.011719-.894531-.027344-1.332031 2.007812-1.449219 3.75-3.261719 5.128906-5.324219z"/></svg>