<?xml version="1.0" encoding="utf-8"?>
<!-- Generator: Adobe Illustrator 23.0.2, SVG Export Plug-In . SVG Version: 6.00 Build 0)  -->
<svg version="1.1" id="Layer_1" xmlns="http://www.w3.org/2000/svg" xmlns:xlink="http://www.w3.org/1999/xlink" x="0px" y="0px"
	 viewBox="0 0 556 375.1" style="enable-background:new 0 0 556 375.1;" xml:space="preserve">
<style type="text/css">
	.st0{opacity:0.2;fill:#869FBC;enable-background:new    ;}
	.st1{fill:#A2AEBF;}
	.st2{fill:url(#SVGID_1_);}
	.st3{fill:url(#SVGID_2_);}
	.st4{fill:url(#SVGID_3_);}
	.st5{fill:url(#SVGID_4_);}
	.st6{fill:url(#SVGID_5_);}
	.st7{fill:url(#SVGID_6_);}
	.st8{fill:url(#SVGID_7_);}
	.st9{fill:url(#SVGID_8_);}
	.st10{fill:url(#SVGID_9_);}
	.st11{fill:url(#SVGID_10_);}
	.st12{fill:#3F3D56;}
	.st13{fill:url(#SVGID_11_);}
	.st14{fill:url(#SVGID_12_);}
	.st15{fill:url(#SVGID_13_);}
	.st16{fill:url(#SVGID_14_);}
	.st17{fill:none;stroke:#000000;stroke-width:1.12;stroke-miterlimit:10;}
	.st18{fill:url(#SVGID_15_);}
	.st19{fill:url(#SVGID_16_);}
	.st20{fill:none;stroke:#FFFFFF;stroke-width:2;stroke-miterlimit:10;}
	.st21{fill:url(#SVGID_17_);}
	.st22{fill:url(#SVGID_18_);}
	.st23{fill:url(#SVGID_19_);}
	.st24{fill:url(#SVGID_20_);}
	.st25{fill:url(#SVGID_21_);}
	.st26{fill:url(#SVGID_22_);}
	.st27{fill:url(#SVGID_23_);}
	.st28{fill:url(#SVGID_24_);}
	.st29{fill:#25233A;}
	.st30{fill:url(#SVGID_25_);}
	.st31{fill:url(#SVGID_26_);}
	.st32{fill:url(#SVGID_27_);}
	.st33{fill:url(#SVGID_28_);}
	.st34{fill:url(#SVGID_29_);}
	.st35{fill:url(#SVGID_30_);}
</style>
<title>45. Wallet and Dollars</title>
<path class="st0" d="M483.9,352.9c11.4-0.4,23.5-1.3,31.7-6.3c21.4-13.3-0.5-43.5,20.1-57.3c3.7-2.5,8.6-4.2,12.1-6.9
	c12-9.3,2.6-24.6-5.7-36.9c-11.5-17.1-20.1-34.8-25.6-52.8c-3.8-12.3-6.4-25.2-17.1-35.8c-14.7-14.6-41.5-21.5-66.4-24.1
	c-16.5-1.7-33.6-2.1-49.1-7c-24.4-7.6-78.9-87.4-209.9-40c-9.3,3.4-19.9,5.3-28.3,9.5c-9.3,4.7-16.9,11.1-27.4,14.6
	c-10.1,3.4-22,3.8-32.9,5.9c-39,7.5-60.8,35.3-64.2,63.2c-1.8,14.8,0.3,30.8-9.4,43.6c-3.2,4.2-7.8,8.1-9.1,12.9
	c-2.6,9.4,7.7,18.9,17.3,26.8c20.2,16.6,41.3,33.6,68.5,44.4c26.5,10.5,56.7,14.3,86.1,17.9c45.6,5.6,91.2,10.9,136.7,16.7
	c33.7,4.3,66,9.5,100.1,11.2C435.7,353.7,459.9,353.8,483.9,352.9z"/>
<path class="st1" d="M478.8,63.9l-11.4-7.6c0,0-25.5,27.3-70.1,41.9C397.3,98.2,452.3,108,478.8,63.9z"/>
<linearGradient id="SVGID_1_" gradientUnits="userSpaceOnUse" x1="446.4488" y1="501.2364" x2="413.6837" y2="768.1298" gradientTransform="matrix(1 0 0 1 -3.09 -456.33)">
	<stop  offset="0" style="stop-color:#000000;stop-opacity:0"/>
	<stop  offset="0.97" style="stop-color:#000000"/>
</linearGradient>
<path class="st2" d="M478.8,71l-11.4-7.6c0,0-25.5,27.3-70.1,41.9C397.3,105.4,452.3,115.2,478.8,71z"/>
<path class="st1" d="M500,62.8l-11.4-7.6c0,0-25.5,27.3-70.1,41.9C418.5,97.1,473.5,106.9,500,62.8z"/>
<linearGradient id="SVGID_2_" gradientUnits="userSpaceOnUse" x1="467.6506" y1="500.1218" x2="434.8855" y2="767.0152" gradientTransform="matrix(1 0 0 1 -3.09 -456.33)">
	<stop  offset="0" style="stop-color:#000000;stop-opacity:0"/>
	<stop  offset="0.97" style="stop-color:#000000"/>
</linearGradient>
<path class="st3" d="M500,69.9l-11.4-7.6c0,0-25.5,27.3-70.1,41.9C418.5,104.3,473.5,114.1,500,69.9z"/>
<path class="st1" d="M246.5,111.6c1.6,2,4.3,2.7,6.8,3.1c3.5,0.5,7,0.7,10.6,0.4c0.5-0.1,1.1,0,1.5,0.3c0.6,0.6,0.2,1.7-0.4,2.4
	c-2.3,3.5-5.6,6.2-9.4,7.9c-3.8,1.6-8.5,1.6-11.9-0.7c-2.6-1.7-4.8-4.7-7.9-4.6c-4,12.2-14.7,21-27.4,22.6c-1.8,0.2-4.1,0-4.9-1.7
	c-0.2-0.6-0.3-1.2-0.3-1.7c-0.2-8.1,2.3-16,4.9-23.6c1.1-3.4,2.3-6.9,4.5-9.8c4.5-6,12.7-8,19.9-7.3c3.1,0.3,5.5,0.8,8,2.8
	C244.1,104.6,243.9,108.3,246.5,111.6z"/>
<linearGradient id="SVGID_3_" gradientUnits="userSpaceOnUse" x1="233.2468" y1="580.1021" x2="167.2076" y2="561.674" gradientTransform="matrix(1 0 0 1 -3.09 -456.33)">
	<stop  offset="0" style="stop-color:#000000;stop-opacity:0"/>
	<stop  offset="0.97" style="stop-color:#000000"/>
</linearGradient>
<path class="st4" d="M246.5,111.6c1.6,2,4.3,2.7,6.8,3.1c3.5,0.5,7,0.7,10.6,0.4c0.5-0.1,1.1,0,1.5,0.3c0.6,0.6,0.2,1.7-0.4,2.4
	c-2.3,3.5-5.6,6.2-9.4,7.9c-3.8,1.6-8.5,1.6-11.9-0.7c-2.6-1.7-4.8-4.7-7.9-4.6c-4,12.2-14.7,21-27.4,22.6c-1.8,0.2-4.1,0-4.9-1.7
	c-0.2-0.6-0.3-1.2-0.3-1.7c-0.2-8.1,2.3-16,4.9-23.6c1.1-3.4,2.3-6.9,4.5-9.8c4.5-6,12.7-8,19.9-7.3c3.1,0.3,5.5,0.8,8,2.8
	C244.1,104.6,243.9,108.3,246.5,111.6z"/>
<linearGradient id="SVGID_4_" gradientUnits="userSpaceOnUse" x1="185.3542" y1="618.3351" x2="270.3306" y2="543.5864" gradientTransform="matrix(1 0 0 1 -3.09 -456.33)">
	<stop  offset="0" style="stop-color:#6300BF;stop-opacity:0.8"/>
	<stop  offset="9.079458e-02" style="stop-color:#7520C8;stop-opacity:0.8187"/>
	<stop  offset="0.2466" style="stop-color:#914FD6;stop-opacity:0.8508"/>
	<stop  offset="0.4018" style="stop-color:#A877E2;stop-opacity:0.8828"/>
	<stop  offset="0.5536" style="stop-color:#BA96EA;stop-opacity:0.9141"/>
	<stop  offset="0.701" style="stop-color:#C7ACF1;stop-opacity:0.9445"/>
	<stop  offset="0.8422" style="stop-color:#CEB9F5;stop-opacity:0.9736"/>
	<stop  offset="0.97" style="stop-color:#D1BEF6"/>
</linearGradient>
<path class="st5" d="M246.5,111.6c1.6,2,4.3,2.7,6.8,3.1c3.5,0.5,7,0.7,10.6,0.4c0.5-0.1,1.1,0,1.5,0.3c0.6,0.6,0.2,1.7-0.4,2.4
	c-2.3,3.5-5.6,6.2-9.4,7.9c-3.8,1.6-8.5,1.6-11.9-0.7c-2.6-1.7-4.8-4.7-7.9-4.6c-4,12.2-14.7,21-27.4,22.6c-1.8,0.2-4.1,0-4.9-1.7
	c-0.2-0.6-0.3-1.2-0.3-1.7c-0.2-8.1,2.3-16,4.9-23.6c1.1-3.4,2.3-6.9,4.5-9.8c4.5-6,12.7-8,19.9-7.3c3.1,0.3,5.5,0.8,8,2.8
	C244.1,104.6,243.9,108.3,246.5,111.6z"/>
<path class="st1" d="M423.8,97.6c0,0-5.4-62.2-3.6-81.8c0,0-101.9,45.9-129.6,81.8s-158.8,61.2-158.8,61.2l280.7,0.9L423.8,97.6z"/>
<linearGradient id="SVGID_5_" gradientUnits="userSpaceOnUse" x1="278.6153" y1="540.0451" x2="298.0707" y2="686.9789" gradientTransform="matrix(1 0 0 1 -3.09 -456.33)">
	<stop  offset="0" style="stop-color:#000000;stop-opacity:0"/>
	<stop  offset="0.97" style="stop-color:#000000"/>
</linearGradient>
<path class="st6" d="M423.8,97.6c0,0-5.4-62.2-3.6-81.8c0,0-101.9,45.9-129.6,81.8s-158.8,61.2-158.8,61.2l280.7,0.9L423.8,97.6z"/>
<linearGradient id="SVGID_6_" gradientUnits="userSpaceOnUse" x1="332.3177" y1="498.4604" x2="341.0454" y2="664.8857" gradientTransform="matrix(1 0 0 1 -3.09 -456.33)">
	<stop  offset="0" style="stop-color:#000000;stop-opacity:0"/>
	<stop  offset="0.97" style="stop-color:#000000"/>
</linearGradient>
<path class="st7" d="M418.5,97.1c0,0-5.3-56.3-3.6-69.9c0,0-75.1,38.2-99.7,69.9S247.8,138,247.8,138S375.7,99.5,418.5,97.1z"/>
<path class="st1" d="M180.7,158.8c0,0,178.4-57.9,229.1-59.5s94.8-40.2,94.8-40.2s33.8,100.6,29.1,139.2L457.4,235l-69.1,52.1
	L180.7,158.8z"/>
<linearGradient id="SVGID_7_" gradientUnits="userSpaceOnUse" x1="417.2032" y1="545.9308" x2="322.9991" y2="731.2571" gradientTransform="matrix(1 0 0 1 -3.09 -456.33)">
	<stop  offset="0" style="stop-color:#000000;stop-opacity:0"/>
	<stop  offset="0.97" style="stop-color:#000000"/>
</linearGradient>
<path class="st8" d="M350,114.2c-1-4.1,3.6-6.6,7-4.9c3.6,1.8,5.4,6.7,7,10.1c3.9,7.8,9.8,14.4,17.1,19.1c1.6,1,3.6,1.9,5.2,1
	c1.4-5.1-1.9-10.1-3.9-15c-1.8-4.4-2.6-9.1-2.3-13.8c0-1.9,0.5-3.8,1.4-5.5c1-1.7,2.9-2.7,4.8-2.6c2.9,0.4,4.3,3.7,5.1,6.5l6.3,21.1
	c0.3,1.1,0.8,2.4,2,2.7s2.4-0.6,3.3-1.6c2.1-1.9,3.9-4.2,5.3-6.7c3.4-7.1,0.1-15.3-0.4-23.2c-0.1-1.2,0.1-2.6,1.1-3.1
	c1.5-0.7,2.9,1.1,3.6,2.6c2.4,5.3,4.7,10.6,6.9,16c1.1,2.3,1.8,4.7,2.2,7.2c0.3,2.9-0.3,5.8-0.8,8.7c-1.3,7.7-1.8,15.5-1.4,23.2
	c0.3,6.2,1.1,12.5-0.1,18.6c-0.8,4.2-2.6,8.2-4.3,12.2l-15.4,34.8c-1.2,2.7-2.4,5.5-4.7,7.3c-2.2,1.9-5.8,2.6-8.1,0.8l-0.6-24.9
	c-0.1-4.8-0.2-9.6-0.8-14.4c-1.2-9.7-4.3-19.1-7.3-28.3c-1-3.1-2.1-6.3-4.2-8.7c-2-2.2-4.7-3.6-7.1-5.5c-5.5-4-9.5-9.8-11.3-16.4
	c-1.2-4.2-1.4-8.7-3.3-12.7C351.2,117.5,350.5,115.9,350,114.2z"/>
<linearGradient id="SVGID_8_" gradientUnits="userSpaceOnUse" x1="355.2729" y1="569.0334" x2="366.8825" y2="569.0334" gradientTransform="matrix(1 0 0 1 -3.09 -456.33)">
	<stop  offset="0" style="stop-color:#ECC4D7"/>
	<stop  offset="0.42" style="stop-color:#EFD4D1"/>
	<stop  offset="1" style="stop-color:#F2EAC9"/>
</linearGradient>
<path class="st9" d="M363.8,108.5c-0.2-0.3-0.8,0-0.9,0.3s-0.2,0.8-0.4,1.1c-0.6-1.1-1.3-2.1-2.3-2.9c-0.2-0.2-0.4-0.3-0.6-0.3
	c-0.5-0.1-1,0.4-1,1c0.1,0.5,0.3,1,0.6,1.5c-0.4-0.7-1-1.3-1.8-1.6c-0.2-0.1-0.3-0.1-0.5-0.1c-0.5,0.1-0.7,0.7-0.6,1.2
	c0.2,0.4,0.3,0.9,0.5,1.4c-0.3-0.6-0.8-1.1-1.4-1.4s-1.4-0.4-1.7,0.2c-0.1,0.3-0.1,0.6-0.1,0.8c0.1,0.7,0.3,1.4,0.6,2
	c-0.3-0.7-0.8-1.4-1.4-2c-0.1-0.1-0.2-0.2-0.3-0.2c-0.4,0-0.5,0.5-0.4,0.9c0.5,2.6,2,4.8,4.2,6.2c0.9,0.4,1.7,1,2.4,1.6
	c0.3,0.3,0.6,0.6,0.9,0.5c0.1,0,0.2-0.1,0.3-0.2l3.3-2.6c0.1-0.1,0.2-0.1,0.2-0.2c0.1-0.2-0.1-0.5-0.2-0.7c-0.6-1-0.6-2.2-0.1-3.2
	C363.5,110.7,363.7,109.6,363.8,108.5z"/>
<linearGradient id="SVGID_9_" gradientUnits="userSpaceOnUse" x1="412.99" y1="557.9147" x2="423.0177" y2="557.9147" gradientTransform="matrix(1 0 0 1 -3.09 -456.33)">
	<stop  offset="0" style="stop-color:#ECC4D7"/>
	<stop  offset="0.42" style="stop-color:#EFD4D1"/>
	<stop  offset="1" style="stop-color:#F2EAC9"/>
</linearGradient>
<path class="st10" d="M410.4,99.8c-0.1-0.6-0.1-1.2,0.1-1.7c0.2-0.6,0.8-0.9,1.4-0.8c0.5,0.1,0.8,0.7,1,1.2l0.7,1.7
	c-0.4-0.8-0.8-1.7-0.9-2.7c-0.1-0.3-0.1-0.6,0-0.8c0.1-0.3,0.4-0.4,0.7-0.3c0.1,0.1,0.3,0.2,0.3,0.3c0.6,0.8,1,1.8,1.4,2.7
	c-0.6-0.8-0.8-1.7-0.6-2.6c0-0.2,0.2-0.5,0.4-0.6c0.5-0.3,1,0.2,1.3,0.7c0.5,0.8,0.8,1.6,1.1,2.5c-0.2-0.7-0.3-1.5-0.2-2.2
	c0-0.2,0.1-0.5,0.3-0.6c0.4-0.3,0.9,0.2,1.1,0.6c1.1,2,1.6,4.4,1.4,6.7c0,0.6-0.2,1.3-0.7,1.8c-0.4,0.3-0.8,0.5-1.3,0.6
	c-1.3,0.3-2.5,0.5-3.8,0.7c-0.9,0.2-1.9-0.1-2.4-0.9l-1.4-1.3c-0.2-0.2-0.3-0.4-0.4-0.7c0-0.8,1.2-0.5,1.5-1.1
	S410.5,100.4,410.4,99.8z"/>
<linearGradient id="SVGID_10_" gradientUnits="userSpaceOnUse" x1="259.3496" y1="554.7411" x2="239.0033" y2="545.9136" gradientTransform="matrix(1 0 0 1 -3.09 -456.33)">
	<stop  offset="0" style="stop-color:#ECC4D7"/>
	<stop  offset="0.42" style="stop-color:#EFD4D1"/>
	<stop  offset="1" style="stop-color:#F2EAC9"/>
</linearGradient>
<path class="st11" d="M249.8,91.4c-3.9,11.8-9.4,12.8-14.3,9.4c0,0,0,0.1-0.1,0.3l0,0c-0.2,0.8-0.8,2.9-1.8,3.6
	c-0.5,0.3-1.1,0.5-1.7,0.5c-2.1-0.1-3.9-1.4-4.7-3.3c-1-2.5-0.5-5.3,0-7.9c0.4-2.6,1.1-5.1,2-7.6c1.8-4.2,5-7.7,9.2-9.7
	c1.5-0.8,3.1-1.2,4.7-1.2c3,0.1,7.5,2.9,8.4,5.9C252.2,84.1,250.6,89,249.8,91.4z"/>
<path class="st12" d="M253.9,80.2c0.1,1.7-0.7,3.8-2.4,4.2c-2.8,0.7-5-3.6-7.9-3.2c-1.4,0.2-2.4,1.5-3.8,1.8c-0.7,0.2-1.5,0-2.2,0.2
	c-1.3,0.3-2.1,1.6-2.6,2.9c-0.5,1.2-0.8,2.6-1.8,3.5c-0.4-0.5-0.6-1.2-0.5-1.8c0.1-0.6,0-1.3-0.2-1.9c-0.3-0.6-1.5-0.6-2,0.5
	c-0.9,1.7-0.9,2.8-0.6,4.7c-0.6,0.4-1.4,0.3-1.8-0.3c0,0,0-0.1-0.1-0.1c-0.3-0.7-0.5-1.4-0.4-2.1v-6.1c0-2,0.1-4.2,1.5-5.6
	c0.6-0.5,1.2-1,2-1.3l1.8-0.9l2.2-1.1c2.8-1.4,5.8-2.7,9-2.7C248.7,70.9,253.7,75.5,253.9,80.2z"/>
<path class="st1" d="M225.3,119.3c2.7,4.9,5.7,9.8,9.9,13.5c1.2,1.1,11.6,4.3,10.7,5.7c-12.7,9-16.3,2.5-19.2,1.4s-4.3-5.7-6.8-7.6
	c-1.8-1.3-3.5-2.7-5-4.2c-4.3-4.7-6.2-11.1-5.1-17.3c0.6-3.3,6.4-13,10.7-7.7c1.3,1.6,0.4,4.9,0.7,6.8
	C221.9,113.2,223.6,116.3,225.3,119.3z"/>
<linearGradient id="SVGID_11_" gradientUnits="userSpaceOnUse" x1="210.5871" y1="592.6597" x2="235.1609" y2="575.768" gradientTransform="matrix(1 0 0 1 -3.09 -456.33)">
	<stop  offset="0" style="stop-color:#000000;stop-opacity:0"/>
	<stop  offset="5.456202e-03" style="stop-color:#030304;stop-opacity:5.624950e-03"/>
	<stop  offset="7.803153e-02" style="stop-color:#2E2A36;stop-opacity:8.044487e-02"/>
	<stop  offset="0.1559" style="stop-color:#554D64;stop-opacity:0.1607"/>
	<stop  offset="0.2375" style="stop-color:#766C8B;stop-opacity:0.2448"/>
	<stop  offset="0.3235" style="stop-color:#9285AC;stop-opacity:0.3335"/>
	<stop  offset="0.4153" style="stop-color:#A99AC7;stop-opacity:0.4282"/>
	<stop  offset="0.515" style="stop-color:#BBAADC;stop-opacity:0.5309"/>
	<stop  offset="0.6266" style="stop-color:#C7B5EB;stop-opacity:0.6459"/>
	<stop  offset="0.7595" style="stop-color:#CFBCF3;stop-opacity:0.783"/>
	<stop  offset="0.97" style="stop-color:#D1BEF6"/>
</linearGradient>
<path class="st13" d="M225.3,119.3c2.7,4.9,5.7,9.8,9.9,13.5c1.2,1.1,11.6,4.3,10.7,5.7c-12.7,9-16.3,2.5-19.2,1.4s-4.3-5.7-6.8-7.6
	c-1.8-1.3-3.5-2.7-5-4.2c-4.3-4.7-6.2-11.1-5.1-17.3c0.6-3.3,6.4-13,10.7-7.7c1.3,1.6,0.4,4.9,0.7,6.8
	C221.9,113.2,223.6,116.3,225.3,119.3z"/>
<linearGradient id="SVGID_12_" gradientUnits="userSpaceOnUse" x1="276.3149" y1="564.3109" x2="287.1972" y2="564.3109" gradientTransform="matrix(1 0 0 1 -3.09 -456.33)">
	<stop  offset="0" style="stop-color:#ECC4D7"/>
	<stop  offset="0.42" style="stop-color:#EFD4D1"/>
	<stop  offset="1" style="stop-color:#F2EAC9"/>
</linearGradient>
<path class="st14" d="M278,109c1.7-1.8,4.2-3.2,6.1-4.7c-1.9-0.9-5.9-0.4-7.6,0.8c-2.3,1.7-5.5,5.5-1.2,6.8c1.1,0.4,3.8,0.4,4.1-1.2
	C279.6,109.9,278.9,108.2,278,109z"/>
<path class="st1" d="M149.7,187.2c0,0-115.7,1.2-120.3-18.6l-0.1-1.5c1.1-21.4,102.6-8.3,102.6-8.3l102.4,0.6
	c-2.7,0.1-5.2,0.2-7.6,0.4c-53.6,3.2-95.8,1.7-149.4-1.6c-7.7-0.5-16.5-2.3-24.1-1.2c-3.6,0.5-14.7,3.7-15.7,7.2
	c-0.4,1.5,0.9,2.9,2.3,3.9c11.8,8.2,27.1,8.4,41.5,8.3c100.2-0.7,195.9-0.3,295.9-0.9C373.9,173.4,149.7,187.2,149.7,187.2z"/>
<path class="st1" d="M377.1,175.4c-100,0.7-195.8,0.2-295.9,0.9c-14.3,0.1-29.7-0.1-41.5-8.3c-1.3-0.9-2.7-2.3-2.3-3.9
	c1-3.5,12.1-6.7,15.7-7.2c7.6-1.1,16.5,0.7,24.1,1.2c53.6,3.3,95.8,4.8,149.4,1.6c2.3-0.1,4.9-0.3,7.6-0.4l89.3,0.5l18.4,0.1h0.1
	l16.6,0.1C368.3,169.1,373.9,173.4,377.1,175.4z"/>
<linearGradient id="SVGID_13_" gradientUnits="userSpaceOnUse" x1="208.7478" y1="612.0222" x2="208.5386" y2="643.9489" gradientTransform="matrix(1 0 0 1 -3.09 -456.33)">
	<stop  offset="0" style="stop-color:#000000;stop-opacity:0"/>
	<stop  offset="0.97" style="stop-color:#000000"/>
</linearGradient>
<path class="st15" d="M381.8,177.2l-232.1,10c0,0-115.7,1.2-120.3-18.6l-0.1-1.5c1.1-21.4,102.6-8.3,102.6-8.3l226.8,1.2
	c9.6,9.1,15.2,13.4,18.5,15.4h4.4l0,0c0,0,0,0,0,0.1v0.2L381.8,177.2z"/>
<linearGradient id="SVGID_14_" gradientUnits="userSpaceOnUse" x1="385.0737" y1="632.6398" x2="384.2282" y2="632.5944" gradientTransform="matrix(1 0 0 1 -3.09 -456.33)">
	<stop  offset="0" style="stop-color:#000000;stop-opacity:0"/>
	<stop  offset="0.97" style="stop-color:#000000"/>
</linearGradient>
<path class="st16" d="M382.2,177.2h-0.3l-0.2-1.6v-0.1c0,0,0,0,0-0.1L382.2,177.2z"/>
<path class="st17" d="M29.4,168.6c-0.1-0.5-0.2-1-0.1-1.5L29.4,168.6z"/>
<path class="st1" d="M398.7,330.6c0,0-273,31.7-333.4,6.8c0,0-24.6-6.4-26.3-28.2c-1.7-21.7,4.2-29.5-2-56.8l-7.6-83.8
	c4.5,19.8,120.3,18.6,120.3,18.6l232.5-10c0,0,4.1,12.5,5.4,54.4C389.1,282.5,398.7,330.6,398.7,330.6z"/>
<linearGradient id="SVGID_15_" gradientUnits="userSpaceOnUse" x1="210.4735" y1="600.1191" x2="209.9644" y2="679.4862" gradientTransform="matrix(1 0 0 1 -3.09 -456.33)">
	<stop  offset="0" style="stop-color:#000000;stop-opacity:0"/>
	<stop  offset="0.97" style="stop-color:#000000"/>
</linearGradient>
<path class="st18" d="M377.1,175.4c-100,0.7-195.8,0.2-295.9,0.9c-14.3,0.1-29.7-0.1-41.5-8.3c-1.3-0.9-2.7-2.3-2.3-3.9
	c1-3.5,12.1-6.7,15.7-7.2c7.6-1.1,16.5,0.7,24.1,1.2c53.6,3.3,95.8,4.8,149.4,1.6c2.3-0.1,4.9-0.3,7.6-0.4c18-0.7,42.6-0.6,58.4-0.4
	c10.4,0.2,20.6,0.6,31,0.9c6.1,0.1,12.2,0.2,18.4,0.1h0.1c3.4-0.1,10,0,16.5,0l0.1,0.1C368.3,169.1,373.9,173.4,377.1,175.4z"/>
<linearGradient id="SVGID_16_" gradientUnits="userSpaceOnUse" x1="270.0061" y1="711.7578" x2="-383.2404" y2="726.0949" gradientTransform="matrix(1 0 0 1 -3.09 -456.33)">
	<stop  offset="0" style="stop-color:#000000;stop-opacity:0"/>
	<stop  offset="0.97" style="stop-color:#000000"/>
</linearGradient>
<path class="st19" d="M30.5,180.8c0,0,3.9,14.7,76.9,17.5s268.3-8.6,269.3-11.1s10.6,0,10.6,0s-9.3,24-10.6,42.6
	s11.6,86.1,11.6,89.9c0,0-230.4,28.6-302.1,13.6c0,0-35.7-11.2-47.5-31.7"/>
<path class="st20" d="M30.5,180.8c0,0,3.9,14.7,76.9,17.5s266.9-10.5,266.9-10.5s3.6,23.4,2.4,42s11.6,86.1,11.6,89.9
	c0,0-230.4,28.6-302.1,13.6c0,0-35.7-11.2-47.5-31.7"/>
<linearGradient id="SVGID_17_" gradientUnits="userSpaceOnUse" x1="244.6086" y1="572.0377" x2="252.2817" y2="644.2227" gradientTransform="matrix(1 0 0 1 -3.09 -456.33)">
	<stop  offset="0" style="stop-color:#000000;stop-opacity:0"/>
	<stop  offset="0.97" style="stop-color:#000000"/>
</linearGradient>
<path class="st21" d="M131.8,174.1c0,0,85.5-1.5,138.2-24.5s93.8,25.9,93.8,25.9L131.8,174.1z"/>
<linearGradient id="SVGID_18_" gradientUnits="userSpaceOnUse" x1="392.1105" y1="623.6299" x2="273.9236" y2="767.9907" gradientTransform="matrix(1 0 0 1 -3.09 -456.33)">
	<stop  offset="0" style="stop-color:#000000;stop-opacity:0"/>
	<stop  offset="0.97" style="stop-color:#000000"/>
</linearGradient>
<path class="st22" d="M456.3,224.3l-65.9,49.1l-10-96.9l-0.2-1.7v-0.2c0,0,0,0,0-0.1l0,0h-4.4c-3.3-1.9-8.9-6.3-18.5-15.4l-0.1-0.1
	l-0.3-0.2c-25.3-23.9-57.1-21.7-57.1-21.7l4.7-2.2c22.8-10.8,47.4-17.4,72.6-19.6l0,0L456.3,224.3z"/>
<linearGradient id="SVGID_19_" gradientUnits="userSpaceOnUse" x1="453.8563" y1="557.7158" x2="275.694" y2="917.1041" gradientTransform="matrix(1 0 0 1 -3.09 -456.33)">
	<stop  offset="0" style="stop-color:#000000;stop-opacity:0"/>
	<stop  offset="0.97" style="stop-color:#000000"/>
</linearGradient>
<path class="st23" d="M312.6,138c0,0,25.2-9.5,46.5-14.8c21.3-5.2,98.1-6.4,137.4-47.6c0,0,24.4,80.6,27,101.6l3.6,12.3
	c0,0-61.4,27.6-70.6,34.8s-65.9,49.1-65.9,49.1l-11.1-96.1l-11.7-8.7c-16-15-28.9-26.8-49.1-29.8L312.6,138z"/>
<linearGradient id="SVGID_20_" gradientUnits="userSpaceOnUse" x1="382.9656" y1="631.1374" x2="381.6928" y2="633.2647" gradientTransform="matrix(1 0 0 1 -3.09 -456.33)">
	<stop  offset="0" style="stop-color:#000000;stop-opacity:0"/>
	<stop  offset="0.97" style="stop-color:#000000"/>
</linearGradient>
<path class="st24" d="M377.1,175.4h4.4c0,0,0,0,0,0.1v0.1C381.6,176.2,381.4,177.9,377.1,175.4z"/>
<linearGradient id="SVGID_21_" gradientUnits="userSpaceOnUse" x1="290.6406" y1="562.0712" x2="204.1368" y2="736.5788" gradientTransform="matrix(1 0 0 1 -3.09 -456.33)">
	<stop  offset="0" style="stop-color:#000000;stop-opacity:0"/>
	<stop  offset="0.97" style="stop-color:#000000"/>
</linearGradient>
<path class="st25" d="M196.5,158.7c0,0,61.7-18.5,83.5-26.4c21.8-7.8,68.9-19.6,68.9-19.6l-91,29.3l-52.5,17L196.5,158.7z"/>
<linearGradient id="SVGID_22_" gradientUnits="userSpaceOnUse" x1="260.637" y1="595.8588" x2="264.2281" y2="620.4326" gradientTransform="matrix(1 0 0 1 -3.09 -456.33)">
	<stop  offset="0" style="stop-color:#000000;stop-opacity:0"/>
	<stop  offset="0.97" style="stop-color:#000000"/>
</linearGradient>
<path class="st26" d="M219.4,159c0,0,8.3-0.7,11-0.9l67.2-25L219.4,159z"/>
<path class="st1" d="M423.7,137.7c2.5-2.6,4.1-6,4.5-9.5c0.4-3.8-1.4-7.5-2.8-11.1c-0.9-2.4-1.6-4.8-2.5-7.1
	c-0.6-1.8-1.4-3.6-2.1-5.3c-3.3-0.3-6.6,0.8-9.1,3.1c1.2,1.2,1.3,3.1,1.8,4.8c0.8,2.7,2.8,5,3.2,7.7c0.5,3.5-1.8,7.1-4.8,9
	c-1.4,0.8-2.9,1.5-4.5,1.9c-4.1,1.5-8.3,2.6-12.5,3.4c-4.3,0.8-8.7,0.5-12.8-0.8c-2-0.7-3.8-1.6-5.7-2.7c-1.3-0.7-2.6-1.5-3.8-2.4
	c-2.1-1.9-3.9-4.2-5.1-6.8c-1.2-2.3-2.3-4.7-3.1-7.2c-1.9,2.1-3.9,4-6.1,5.7l4.8,10.9c0.6,1.4,1.2,2.7,1.9,3.9c3,5,7.1,9.2,12,12.4
	c1.8,1.1,3.5,2.3,5,3.7c1.6,1.7,2.8,3.6,3.7,5.8c4.5,10,5.5,21.2,7.4,32c0.2,1.8,0.8,3.5,1.8,5c1.2,1.5,3,2.4,4.8,3.2
	c1.5,0.8,3.2,1.3,4.8,1.7c1.7,0.2,3.5,0.1,5.2-0.3c7.2-1.6,13.5-6,17.5-12.1c1.1-1.6,1.9-3.5,2.2-5.5c0.4-3-0.8-6-1.7-8.9
	c-1-3.3-1.4-6.7-2.1-10.1C424.3,155.6,417.7,144.4,423.7,137.7z"/>
<linearGradient id="SVGID_23_" gradientUnits="userSpaceOnUse" x1="311.2549" y1="570.2469" x2="452.5919" y2="621.6894" gradientTransform="matrix(1 0 0 1 -3.09 -456.33)">
	<stop  offset="0" style="stop-color:#FFFFFF"/>
	<stop  offset="0.261" style="stop-color:#F6F2FD;stop-opacity:0.8931"/>
	<stop  offset="0.9159" style="stop-color:#C82AFF;stop-opacity:0.35"/>
</linearGradient>
<path class="st27" d="M423.7,137.7c2.5-2.6,4.1-6,4.5-9.5c0.4-3.8-1.4-7.5-2.8-11.1c-0.9-2.4-1.6-4.8-2.5-7.1
	c-0.6-1.8-1.4-3.6-2.1-5.3c-3.3-0.3-6.6,0.8-9.1,3.1c1.2,1.2,1.3,3.1,1.8,4.8c0.8,2.7,2.8,5,3.2,7.7c0.5,3.5-1.8,7.1-4.8,9
	c-1.4,0.8-2.9,1.5-4.5,1.9c-4.1,1.5-8.3,2.6-12.5,3.4c-4.3,0.8-8.7,0.5-12.8-0.8c-2-0.7-3.8-1.6-5.7-2.7c-1.3-0.7-2.6-1.5-3.8-2.4
	c-2.1-1.9-3.9-4.2-5.1-6.8c-1.2-2.3-2.3-4.7-3.1-7.2c-1.9,2.1-3.9,4-6.1,5.7l4.8,10.9c0.6,1.4,1.2,2.7,1.9,3.9c3,5,7.1,9.2,12,12.4
	c1.8,1.1,3.5,2.3,5,3.7c1.6,1.7,2.8,3.6,3.7,5.8c4.5,10,5.5,21.2,7.4,32c0.2,1.8,0.8,3.5,1.8,5c1.2,1.5,3,2.4,4.8,3.2
	c1.5,0.8,3.2,1.3,4.8,1.7c1.7,0.2,3.5,0.1,5.2-0.3c7.2-1.6,13.5-6,17.5-12.1c1.1-1.6,1.9-3.5,2.2-5.5c0.4-3-0.8-6-1.7-8.9
	c-1-3.3-1.4-6.7-2.1-10.1C424.3,155.6,417.7,144.4,423.7,137.7z"/>
<path class="st1" d="M389.4,253.2c-1.1-4.8-1.7-9.7-1.9-14.5c-0.1-15.6,5.8-29.1,7.4-44.6c9,4.4,24.2,0.6,30.7-6.9
	c6.2,17.2,3.7,36.3,6.6,54.4c2.6,16.5,9.6,31.9,14.3,47.9c0.2,0.7,0.1,1.4-0.4,1.9c-1.2,1.3-5.6,1.4-6.6,0.2
	c-7.9-10.6-12.5-23.1-17.8-35.2c-5.4-12-8.7-25.2-8.1-38.4c-1.1-0.5-2.2,0.6-2.9,1.6c-7.2,10.4-9.6,23.6-9.2,36.2
	c0.4,10.6,2.7,21,5.4,31.3c1.3,5-5.1,8.4-8.4,4.4l-0.1-0.1C396.1,288.5,391.3,263.2,389.4,253.2z"/>
<linearGradient id="SVGID_24_" gradientUnits="userSpaceOnUse" x1="439.8304" y1="680.662" x2="352.7903" y2="779.9844" gradientTransform="matrix(1 0 0 1 -3.09 -456.33)">
	<stop  offset="0" style="stop-color:#000000;stop-opacity:0"/>
	<stop  offset="0.97" style="stop-color:#000000"/>
</linearGradient>
<path class="st28" d="M446.2,291.4c-0.9,0.9-3.5,1.3-5.2,0.9c-0.5-0.1-1-0.3-1.3-0.7c-7.9-10.6-12.5-23.1-17.8-35.2
	c-5.4-12-8.7-25.2-8.1-38.4c-0.4-0.2-0.8-0.2-1.2,0l0,0c-0.7,0.4-1.3,0.9-1.7,1.6c-7.2,10.4-9.6,23.6-9.2,36.2
	c0.4,10.6,2.7,21,5.4,31.3c1.3,5-5.1,8.4-8.4,4.4l-0.1-0.1c-2.4-3-7.2-28.2-9.1-38.2c-1.1-4.8-1.7-9.7-1.9-14.5
	c-0.1-15.6,5.8-29.1,7.4-44.6c9,4.4,24.2,0.6,30.7-6.9c6.2,17.2,3.7,36.3,6.6,54.4c2.6,16.5,9.6,31.9,14.3,47.9
	C446.8,290.1,446.6,290.8,446.2,291.4z"/>
<path class="st29" d="M399.5,307.2c0,0.2,0,0.4,0,0.6c0.2,0.6,0.8,1,1.4,1c1.7,0.2,3.4-0.4,4.6-1.7c1.2-1.2,2.1-2.7,2.7-4.3
	c1.1-2.2,1.8-4.5,2.2-7c0.1-0.3,0-0.6-0.2-0.9c-0.2-0.1-0.4-0.2-0.7-0.3c-2.5-0.6-5.6-9.1-7.7-2.5c-0.7,2.2,0.2,4.6-0.2,7
	C401.2,302,400,304.5,399.5,307.2z"/>
<path class="st29" d="M443.6,294.9c-0.1,0.5-0.3,1.1-0.6,1.5c-1.3,2.4-2.7,5.1-2.5,7.8c0,0.5,0.2,0.9,0.5,1.2c0.3,0.1,0.7,0.1,1.1,0
	c4.3-1.4,7.8-4.7,9.3-9c0.3-0.7,0.4-1.7-0.2-2.2c-0.3-0.2-0.5-0.3-0.9-0.4c-2.4-1-3.2-5.5-5.7-5.7
	C440,287.6,443.8,293.3,443.6,294.9z"/>
<linearGradient id="SVGID_25_" gradientUnits="userSpaceOnUse" x1="448.299" y1="692.5619" x2="377.9051" y2="764.7469" gradientTransform="matrix(1 0 0 1 -3.09 -456.33)">
	<stop  offset="0" style="stop-color:#000000;stop-opacity:0"/>
	<stop  offset="0.97" style="stop-color:#000000"/>
</linearGradient>
<path class="st30" d="M441.9,290.7c-0.1,0.6-0.4,1.2-0.9,1.6c-0.5-0.1-1-0.3-1.3-0.7c-7.9-10.6-12.5-23.1-17.8-35.2
	c-5.4-12-8.7-25.2-8.1-38.4c-0.4-0.2-0.8-0.2-1.2,0c1.6-1.5,3.6-2.4,4.8-4.7c0.1-0.4,0.3-0.7,0.6-0.9c0.6-0.3,1.3-0.1,1.7,0.4
	c0.4,0.6,0.6,1.2,0.6,1.9c0.7,6.9-0.9,13.9,0.2,20.7c0.7,3.6,1.9,7.1,3.4,10.5c1.9,4.5,3.9,8.9,5.9,13.3c1.9,3.9,3.8,7.9,5.5,11.9
	c2.4,5.7,4.3,11.5,6.2,17.4C441.8,289.1,441.9,289.9,441.9,290.7z"/>
<linearGradient id="SVGID_26_" gradientUnits="userSpaceOnUse" x1="239.79" y1="602.83" x2="278.2145" y2="602.83" gradientTransform="matrix(1 0 0 1 -3.09 -456.33)">
	<stop  offset="0" style="stop-color:#ECC4D7"/>
	<stop  offset="0.42" style="stop-color:#EFD4D1"/>
	<stop  offset="1" style="stop-color:#F2EAC9"/>
</linearGradient>
<path class="st31" d="M259.9,151.2l-23.2-8.2c0,0,4.4-5.4,8.6-5.5c0,0,13.6,8.3,16.4,8.6c3,0.2,6,0.2,9,0c0.1,0.8-0.4,1.5-1.2,1.6
	c-0.1,0-0.1,0-0.2,0c-0.7-0.1-1.5,0.1-2.1,0.5c0,0,5.2,1.8,6.7,3.5s1.2,2.1,1.2,2.1l-2.3,0.4l-0.4,0.9l-1.4,0.4l-1.7-0.4l-1.2-0.6
	c-0.8-0.3-1.6-0.7-2.3-1.2C265,152.9,260.7,153,259.9,151.2z"/>
<linearGradient id="SVGID_27_" gradientUnits="userSpaceOnUse" x1="391.3718" y1="577.3019" x2="407.6167" y2="577.3019" gradientTransform="matrix(1 0 0 1 -3.09 -456.33)">
	<stop  offset="0" style="stop-color:#ECC4D7"/>
	<stop  offset="0.42" style="stop-color:#EFD4D1"/>
	<stop  offset="1" style="stop-color:#F2EAC9"/>
</linearGradient>
<path class="st32" d="M388.4,117.5c-0.2,1.1-0.2,2.2-0.1,3.3c0.3,1.4,0.9,2.6,1.7,3.8c0.7,1.2,1.5,2.2,2.5,3.1
	c0.8,0.5,1.5,1.2,2.2,1.8c1,1.3,1.4,2.9,1.3,4.4c0,0.2,0,0.5,0.1,0.7c0.1,0.1,0.2,0.2,0.4,0.3c0.9,0.5,2,0.6,2.9,0.3
	c1-0.3,1.8-0.8,2.6-1.5c0.3-0.2,0.5-0.4,0.6-0.7c0.1-0.4,0.1-0.7,0-1.1c-0.5-2.9,0.2-5.9,0.8-8.8c0.7-2.9,1.3-5.8,1-8.8
	c-0.3-2.9-1.9-5.9-4.6-7.1c-1.3-0.5-2.8-0.7-4.2-0.6c-0.9,0-1.8,0.1-2.7,0.3C388.4,108.4,388.8,113.8,388.4,117.5z"/>
<path class="st12" d="M392.1,101.5c-0.4-0.1-0.8-0.1-1.2,0c-0.8,0.3-1.3,1.1-1.1,2c-0.4-0.5-1.2-0.6-1.7-0.1c-0.1,0-0.1,0.1-0.1,0.1
	c-0.5,0.6-0.6,1.4-0.2,2.1c-0.1-0.2-0.3-0.2-0.4,0s-0.1,0.4,0,0.5l0.1,0.8c0.1,1,0.4,1.9,0.7,2.9c0.8,2,2.6,3.4,4.4,4.5
	c0.5,0.3,0.9,0.6,1.2,1.1c0.2,0.3,0.3,0.7,0.4,1.1c0.2,1.2,0.3,2.3,0.3,3.5l0.9-1.6c0.1-0.1,0.2-0.2,0.3-0.3
	c0.3-0.1,0.6,0.2,0.7,0.5c0.4,1,0.4,2.1-0.1,3c-0.3,0.4-0.6,0.9-0.8,1.4c-0.2,0.5,0,1.1,0.4,1.4c0.2,0.1,0.4,0.1,0.6,0.1
	c0.7,0.3,1.2,0.9,1.3,1.7c0.1,0.7,0.3,1.5,0.6,2.1c0.4,0.6,1.4,0.9,1.9,0.3c0.3,0.8,1.5,0.8,2.4,0.6c0.4-0.1,0.7-0.2,1-0.4
	c0.8-0.6,0.9-1.7,1.1-2.7c0.3-1.4,0.7-2.8,1.2-4.1c0.8-2.2,1.3-4.6,1.5-6.9c0.1-1.4,0.1-3.1-1.1-3.9c-0.3-0.1-0.5-0.3-0.6-0.5
	c-0.1-0.4-0.1-0.8,0-1.1C406.6,103.8,395.7,101.9,392.1,101.5z"/>
<linearGradient id="SVGID_28_" gradientUnits="userSpaceOnUse" x1="235.767" y1="558.8347" x2="216.657" y2="572.9535" gradientTransform="matrix(1 0 0 1 -3.09 -456.33)">
	<stop  offset="0" style="stop-color:#ECC4D7"/>
	<stop  offset="0.42" style="stop-color:#EFD4D1"/>
	<stop  offset="1" style="stop-color:#F2EAC9"/>
</linearGradient>
<path class="st33" d="M235.5,101.1L235.5,101.1c-0.2,0.8-0.8,2.9-1.8,3.6c-0.5,0.3-1.1,0.5-1.7,0.5c-0.3-0.2-0.5-0.6-0.6-0.9
	c-0.1-0.7,0-1.5,0.2-2.2s0.5-1.4,0.8-2.1c0.1-0.2,0.3-0.5,0.5-0.6c0.2-0.2,0.5-0.3,0.7-0.2c0.1,0.1,0.3,0.1,0.4,0.2
	c0.4,0.4,0.8,0.7,1.2,1.2C235.4,100.7,235.5,100.9,235.5,101.1z"/>
<linearGradient id="SVGID_29_" gradientUnits="userSpaceOnUse" x1="239.2098" y1="540.6085" x2="227.182" y2="551.7453" gradientTransform="matrix(1 0 0 1 -3.09 -456.33)">
	<stop  offset="0" style="stop-color:#ECC4D7"/>
	<stop  offset="0.42" style="stop-color:#EFD4D1"/>
	<stop  offset="1" style="stop-color:#F2EAC9"/>
</linearGradient>
<path class="st34" d="M231.8,88c0.1-0.1,0.1-0.3,0.1-0.4c0-0.2-0.3-0.4-0.6-0.4c-0.1,0-0.1,0-0.2,0c-0.1,0-0.1,0.1-0.1,0.2
	c-0.3,0.6-0.4,1.2-0.4,1.9c0,0.3,0,0.6,0.1,0.8c0.1,0.3,0.4,0.4,0.7,0.3c0.1-0.1,0.3-0.2,0.3-0.4c0.2-0.2,0.3-0.5,0.4-0.7
	c0.1-0.4,0.1-0.2,0-0.5C232,88.6,231.7,88.4,231.8,88z"/>
<linearGradient id="SVGID_30_" gradientUnits="userSpaceOnUse" x1="192.9038" y1="679.8077" x2="500.8354" y2="1031.5139" gradientTransform="matrix(1 0 0 1 -3.09 -456.33)">
	<stop  offset="0" style="stop-color:#000000;stop-opacity:0"/>
	<stop  offset="0.97" style="stop-color:#000000"/>
</linearGradient>
<path class="st35" d="M373.4,265.2l8.2,48.1c0,0-189.9,26.6-244.2,18.4c0,0,107-36,118.5-44.6C267.4,278.6,358.5,243.3,373.4,265.2z
	"/>
</svg>
